<svg id="Layer_1" data-name="Layer 1" xmlns="http://www.w3.org/2000/svg" viewBox="0 0 1200 900"><defs><style>.cls-1{fill:#ef2590;}.cls-2{fill:#fff;}</style></defs><rect width="1200" height="900"/><path class="cls-1" d="M536.75,432.51q-9.76,9.28-24.65,9.29t-24.64-9.29q-9.76-9.28-9.76-23.81v-52h18.09v51.19c0,5.09,1.51,9.17,4.53,12.27a15.72,15.72,0,0,0,11.78,4.64A16,16,0,0,0,524,420.13c3.06-3.1,4.58-7.18,4.58-12.27V356.67h18v52Q546.51,423.22,536.75,432.51Z"/><path class="cls-1" d="M598,374.17q10.95,0,17.32,7.32t6.37,19.59V440H604.28V403.82q0-14.42-11.19-14.41a14.38,14.38,0,0,0-7.68,2,12.94,12.94,0,0,0-5,5.84,21.49,21.49,0,0,0-1.73,8.93V440H561.3V375.72h11.91l3.45,8a21.58,21.58,0,0,1,4.11-4,27.26,27.26,0,0,1,5.06-3,27.88,27.88,0,0,1,5.77-1.9A29.91,29.91,0,0,1,598,374.17Z"/><path class="cls-1" d="M673.41,376.55V391h-16.2V440H639.83V391H628.64V376.55H640v-5.83q0-9.41,5.24-14.77t15.12-5.35h13v13.69h-9.53q-7,0-7,6.9v5.36Z"/><path class="cls-1" d="M756.75,440V352.5h17.38V440Z"/><path class="cls-1" d="M788.25,440V352.5h17.38V440Z"/><path class="cls-1" d="M850.93,441.8a36.26,36.26,0,0,1-17.86-4.41,31.69,31.69,0,0,1-12.45-12.2,34.31,34.31,0,0,1-4.46-17.33q0-14.64,9.88-24.28t24.89-9.65q14.88,0,24.76,9.65t9.88,24.28q0,14.53-9.94,24.23T850.93,441.8Zm0-16.31a16.28,16.28,0,0,0,12.26-4.95,19.27,19.27,0,0,0,0-25.36,17.85,17.85,0,0,0-24.65,0,17.56,17.56,0,0,0-4.76,12.68A20.24,20.24,0,0,0,835,415a15.32,15.32,0,0,0,3.51,5.59,16.68,16.68,0,0,0,5.42,3.58A18,18,0,0,0,850.93,425.49Z"/><path class="cls-1" d="M711.58,441.8a36.26,36.26,0,0,1-17.86-4.41,31.6,31.6,0,0,1-12.44-12.2,34.21,34.21,0,0,1-4.47-17.33q0-14.64,9.88-24.28t24.89-9.65q14.88,0,24.76,9.65t9.88,24.28q0,14.53-9.94,24.23T711.58,441.8Zm0-16.31a16.25,16.25,0,0,0,12.26-4.95,19.27,19.27,0,0,0,0-25.36,17.85,17.85,0,0,0-24.65,0,17.56,17.56,0,0,0-4.76,12.68,20.24,20.24,0,0,0,1.25,7.15,15.58,15.58,0,0,0,3.51,5.59,16.68,16.68,0,0,0,5.42,3.58A18.07,18.07,0,0,0,711.58,425.49Z"/><path class="cls-1" d="M968.45,375.72h17.26L964.64,440H950.71l-14.65-33.22L921.78,440H907.85l-21.31-64.29h17.74l12.62,38.34,16.78-37.86h4.89l17.26,38Z"/><path class="cls-2" d="M528.3,480.94H496.63v18.34H525.2v16.31H496.63V547.5h-18.1V464.15H528.3Z"/><rect class="cls-1" x="536.83" y="464.15" width="17.38" height="16.19"/><rect class="cls-2" x="536.83" y="488.92" width="17.38" height="58.58"/><path class="cls-2" d="M605,481.66q11,0,17.33,7.32t6.37,19.58V547.5H611.3V511.3q0-14.4-11.19-14.4a14.31,14.31,0,0,0-7.68,2,12.92,12.92,0,0,0-5,5.83,21.53,21.53,0,0,0-1.72,8.93V547.5H568.32V483.2h11.91l3.45,8a21.89,21.89,0,0,1,4.11-4,27.55,27.55,0,0,1,5.06-3,27.9,27.9,0,0,1,5.77-1.91A30.64,30.64,0,0,1,605,481.66Z"/><path class="cls-2" d="M689.7,460h17.39V547.5H694.23l-2-5.36a30.19,30.19,0,0,1-20.13,7.26A34.57,34.57,0,0,1,654.7,545a31.3,31.3,0,0,1-12.08-12.21,37,37,0,0,1,0-34.82,31.41,31.41,0,0,1,12.08-12.15,34.57,34.57,0,0,1,17.38-4.4,31.05,31.05,0,0,1,17.62,5.24Zm-28.81,68a18.2,18.2,0,0,0,25.12-.06,17.2,17.2,0,0,0,5-12.62A17.56,17.56,0,1,0,660.89,528Z"/><path class="cls-2" d="M784.08,515.11a39.11,39.11,0,0,1-.35,5.12H735.15q1.07,6.56,5.18,10.06a15.6,15.6,0,0,0,10.54,3.51,16.26,16.26,0,0,0,8-2,14.38,14.38,0,0,0,5.6-5.42h18.33a33,33,0,0,1-31.9,22.86q-14.29,0-23.82-9.76t-9.52-24.17a37.15,37.15,0,0,1,1.61-11,31.68,31.68,0,0,1,4.64-9.41,33.59,33.59,0,0,1,7.08-7.2,31.18,31.18,0,0,1,9.17-4.7,34.55,34.55,0,0,1,10.84-1.67,33.53,33.53,0,0,1,17.32,4.52A30.77,30.77,0,0,1,780,498.21,35.57,35.57,0,0,1,784.08,515.11Zm-33.21-18.93A15.14,15.14,0,0,0,741,499.4a16,16,0,0,0-5.41,8.93H766.7a18.45,18.45,0,0,0-3.45-6.61,15.23,15.23,0,0,0-5.42-4.11A16.69,16.69,0,0,0,750.87,496.18Z"/><path class="cls-2" d="M827.11,482.85h5.72v16.43h-7.5q-7.4,0-10.54,3.45T811.63,514V547.5H794.25V483.2h11.19l3.1,7.86Q815.08,482.84,827.11,482.85Z"/><path class="cls-2" d="M326,317.92a111.69,111.69,0,0,0-111.7,111.7,110.09,110.09,0,0,0,.58,11.39l18.6-6.81c-.07-1.52-.11-3.05-.11-4.58a92.62,92.62,0,0,1,185.24,0c0,1.54,0,3.08-.12,4.59L437.09,441a109.84,109.84,0,0,0,.59-11.4A111.69,111.69,0,0,0,326,317.92Z"/><path class="cls-1" d="M326,522.23a92.65,92.65,0,0,1-90.93-74.9L217,454a110.81,110.81,0,0,0,8.51,24.37h0l.39.75a110.41,110.41,0,0,0,8.35,14.17c13.07,20.06,41.71,56.91,91.81,88.82,50.1-31.91,78.72-68.76,91.79-88.84a110,110,0,0,0,8.36-14.15c.26-.49.38-.75.38-.75A110.31,110.31,0,0,0,434.78,455c.08-.35.16-.71.23-1.07l-18.1-6.63A92.66,92.66,0,0,1,326,522.23Z"/><path class="cls-2" d="M326,349.67a80,80,0,0,0-80,79.95l13.18-4.82a66.95,66.95,0,0,1,133.55,0l13.18,4.83A80,80,0,0,0,326,349.67Z"/><path class="cls-1" d="M404.83,442.89a80,80,0,0,1-157.7,0l12.46-4.57h0a193.08,193.08,0,0,1,132.77,0h0Z"/><circle class="cls-1" cx="325.98" cy="394.61" r="19.39"/></svg>